<svg id="Logo1" xmlns="http://www.w3.org/2000/svg" viewBox="0 0 448 448"><defs><style>.cls-1{fill:#c16aef;}.cls-2{fill:#40b93c;}.cls-3{fill-opacity:0.5;}</style></defs><path class="cls-1" d="M286.78,380.88V325.83a15.11,15.11,0,0,0-7.55-13.08l-47.67-27.53a15.12,15.12,0,0,0-15.12,0l-47.67,27.53a15.11,15.11,0,0,0-7.55,13.08v55.05A15.12,15.12,0,0,0,168.77,394l47.67,27.52a15.12,15.12,0,0,0,15.12,0L279.23,394A15.12,15.12,0,0,0,286.78,380.88Z"/><path class="cls-2" d="M161.22,105.81v31.56a4.88,4.88,0,0,0,2.43,4.22l29.47,17C198,161.44,203,155,199,151L178,129.46a4.85,4.85,0,0,1-1.24-2.19l-5.9-22.69C169.37,99.05,161.22,100.09,161.22,105.81Z"/><path class="cls-1" d="M212.63,257.64v-55a15.12,15.12,0,0,0-7.55-13.09L157.41,162a15.11,15.11,0,0,0-15.11,0L94.62,189.5a15.12,15.12,0,0,0-7.55,13.09v55a15.11,15.11,0,0,0,7.55,13.08l47.68,27.53a15.11,15.11,0,0,0,15.11,0l47.67-27.53A15.11,15.11,0,0,0,212.63,257.64Z"/><path class="cls-1" d="M360.93,257.64v-55a15.12,15.12,0,0,0-7.55-13.09L305.7,162a15.11,15.11,0,0,0-15.11,0L242.92,189.5a15.12,15.12,0,0,0-7.55,13.09v55a15.11,15.11,0,0,0,7.55,13.08l47.67,27.53a15.11,15.11,0,0,0,15.11,0l47.68-27.53A15.11,15.11,0,0,0,360.93,257.64Z"/><path class="cls-3" d="M298.15,300.27a15,15,0,0,0,7.55-2l47.68-27.53a15.11,15.11,0,0,0,7.55-13.08v-55a15.12,15.12,0,0,0-7.55-13.09L305.7,162a15,15,0,0,0-7.55-2"/><path class="cls-3" d="M149.85,300.27a15.11,15.11,0,0,0,7.56-2l47.67-27.53a15.11,15.11,0,0,0,7.55-13.08v-55a15.12,15.12,0,0,0-7.55-13.09L157.41,162a15.11,15.11,0,0,0-7.56-2"/><path class="cls-3" d="M224,423.51a15.11,15.11,0,0,0,7.56-2L279.23,394a15.12,15.12,0,0,0,7.55-13.09V325.83a15.11,15.11,0,0,0-7.55-13.08l-47.67-27.53a15.11,15.11,0,0,0-7.56-2"/><path class="cls-2" d="M286.78,105.81v31.56a4.88,4.88,0,0,1-2.43,4.22l-29.47,17C250,161.44,245,155,249,151l21.09-21.51a4.85,4.85,0,0,0,1.24-2.19l5.9-22.69C278.63,99.05,286.78,100.09,286.78,105.81Z"/><path class="cls-2" d="M224,135.18a4.72,4.72,0,0,0,4.85-4.36l4.42-41.63a4.88,4.88,0,0,1,8.3-2.93h0a4.88,4.88,0,0,0,7.78-5.69l-21-40.73a4.87,4.87,0,0,0-8.66,0l-21,40.73a4.88,4.88,0,0,0,7.78,5.69h0a4.88,4.88,0,0,1,8.3,2.93l4.42,41.63a4.72,4.72,0,0,0,4.85,4.36"/><path class="cls-3" d="M286.78,105.81v31.56a4.88,4.88,0,0,1-2.43,4.22l-29.47,17C250,161.44,245,155,249,151l21.09-21.51a4.85,4.85,0,0,0,1.24-2.19l5.9-22.69C278.63,99.05,286.78,100.09,286.78,105.81Z"/><path class="cls-3" d="M224,135.18a4.72,4.72,0,0,0,4.85-4.36l4.42-41.63a4.88,4.88,0,0,1,8.3-2.93h0a4.88,4.88,0,0,0,7.78-5.69l-21-40.73A4.82,4.82,0,0,0,224,37.2"/></svg>